# File created by Blade
# Date/Time:  Wed Apr 08 17:24:36 2015
# Frame Rate: 120.000 fps
#------------------------------------------------------
:FULLY-SPECIFIED
:DEGREES
1002
root 11.461490 39.079261 5.561762 193.790890 -21.691844 -136.707974
Spine -19.117096 8.589407 16.929247
Head -5.128777 7.020523 22.384592
LeftShoulder -7.130059 21.645806 21.321119
LeftArm 6.670257 17.385544 -80.161478
LeftForeArm 9.979700 0.000000 31.001139
LeftHand -15.319905 -0.000000 -9.285470
LeftHandThumb1 -26.253704 0.000000 33.147579
RightShoulder -40.469659 -47.698882 25.681034
RightArm 48.729562 -6.934964 61.674678
RightForeArm 49.353640 -0.000000 34.340844
RightHand -2.430144 -0.000000 13.840823
RightHandThumb1 -24.326973 -0.000000 -32.862282
LeftUpLeg -54.853909 48.010397 -1.464439
LeftLeg 15.639076 -0.000000 -0.000000
LeftFoot -10.434704 17.380088 -7.670715
LeftToeBase 6.384297 -0.000000 -0.000000
RightUpLeg -103.495181 -31.519896 6.827479
RightLeg 150.537841 -0.000000 -0.000000
RightFoot 11.659827 7.748103 21.120873
RightToeBase -3.898031 -0.000000 0.000000
1003
root 11.468256 39.073963 5.578324 193.923532 -21.413543 -136.735331
Spine -18.956392 8.533555 16.885638
Head -5.296691 7.157709 22.352082
LeftShoulder -7.179615 21.601236 21.291653
LeftArm 6.652974 17.656878 -80.277515
LeftForeArm 10.171268 -0.000000 31.617625
LeftHand -15.333073 -0.000000 -9.316094
LeftHandThumb1 -26.253704 0.000000 33.147579
RightShoulder -40.420712 -47.697520 25.607765
RightArm 48.683282 -6.993157 61.773486
RightForeArm 49.427529 0.000000 34.397802
RightHand -2.429181 -0.000000 13.706387
RightHandThumb1 -24.326973 -0.000000 -32.862282
LeftUpLeg -54.937254 48.145757 -1.511344
LeftLeg 15.706581 -0.000000 -0.000000
LeftFoot -10.495357 17.549851 -7.690819
LeftToeBase 6.308971 -0.000000 -0.000000
RightUpLeg -103.314571 -31.570645 6.704985
RightLeg 150.620756 -0.000000 -0.000000
RightFoot 11.809890 7.704834 21.079044
RightToeBase -4.101850 -0.000000 0.000000
1004
root 11.475963 39.069207 5.595202 194.082777 -21.124387 -136.778504
Spine -18.829573 8.494214 16.809183
Head -5.414019 7.284262 22.359118
LeftShoulder -7.234851 21.611223 21.269975
LeftArm 6.696267 17.970230 -80.341957
LeftForeArm 10.356704 0.000000 32.204142
LeftHand -15.311150 -0.000000 -9.300000
LeftHandThumb1 -26.253704 0.000000 33.147579
RightShoulder -40.412828 -47.723286 25.613659
RightArm 48.669852 -7.024297 61.864545
RightForeArm 49.513792 -0.000000 34.462395
RightHand -2.395265 -0.000000 13.552835
RightHandThumb1 -24.326973 -0.000000 -32.862282
LeftUpLeg -55.065598 48.287053 -1.593457
LeftLeg 15.801594 -0.000000 -0.000000
LeftFoot -10.534092 17.710501 -7.689491
LeftToeBase 6.214103 -0.000000 -0.000000
RightUpLeg -103.170050 -31.591061 6.599353
RightLeg 150.705777 -0.000000 -0.000000
RightFoot 11.850181 7.631689 21.023784
RightToeBase -4.194480 -0.000000 0.000000
1005
root 11.481273 39.067901 5.615185 194.359655 -20.830223 -136.818299
Spine -18.844082 8.515278 16.715787
Head -5.518302 7.382623 22.361484
LeftShoulder -7.274786 21.631916 21.240969
LeftArm 6.680712 18.186298 -80.412158
LeftForeArm 10.702668 -0.000000 32.851332
LeftHand -15.371163 -0.000000 -9.372843
LeftHandThumb1 -26.253704 0.000000 33.147579
RightShoulder -40.453195 -47.746293 25.685921
RightArm 48.644282 -7.024973 61.888156
RightForeArm 49.448098 -0.000000 34.510843
RightHand -2.409346 -0.000000 13.559319
RightHandThumb1 -24.326973 -0.000000 -32.862282
LeftUpLeg -55.327340 48.384546 -1.737915
LeftLeg 15.912835 -0.000000 -0.000000
LeftFoot -10.533054 17.917507 -7.645730
LeftToeBase 6.080185 -0.000000 -0.000000
RightUpLeg -103.165486 -31.577470 6.581598
RightLeg 150.764246 -0.000000 -0.000000
RightFoot 11.905495 7.543300 21.015542
RightToeBase -4.361723 -0.000000 0.000000
1006
root 11.484286 39.061875 5.626748 194.485434 -20.523899 -136.855489
Spine -18.692379 8.510436 16.656667
Head -5.627188 7.489364 22.345643
LeftShoulder -7.313442 21.640764 21.191877
LeftArm 6.675337 18.379673 -80.458999
LeftForeArm 10.975111 -0.000000 33.436324
LeftHand -15.345547 -0.000000 -9.428419
LeftHandThumb1 -26.253704 0.000000 33.147579
RightShoulder -40.470237 -47.746907 25.757825
RightArm 48.605870 -6.981528 61.911600
RightForeArm 49.371177 0.000000 34.563650
RightHand -2.376360 -0.000000 13.534591
RightHandThumb1 -24.326973 -0.000000 -32.862282
LeftUpLeg -55.394728 48.545423 -1.770837
LeftLeg 16.026588 -0.000000 -0.000000
LeftFoot -10.584865 18.069332 -7.643440
LeftToeBase 5.930495 -0.000000 -0.000000
RightUpLeg -102.954697 -31.614444 6.425620
RightLeg 150.832467 -0.000000 -0.000000
RightFoot 11.965254 7.516082 20.950976
RightToeBase -4.507896 -0.000000 0.000000
1007
root 11.486073 39.056721 5.640391 194.591759 -20.261256 -136.872580
Spine -18.525912 8.459415 16.648396
Head -5.731689 7.617915 22.311579
LeftShoulder -7.384313 21.682933 21.122004
LeftArm 6.746883 18.603127 -80.477701
LeftForeArm 11.229119 0.000000 33.949680
LeftHand -15.342719 -0.000000 -9.507071
LeftHandThumb1 -26.253704 0.000000 33.147579
RightShoulder -40.470915 -47.731111 25.805541
RightArm 48.596773 -6.957729 61.883080
RightForeArm 49.409195 -0.000000 34.579065
RightHand -2.414572 -0.000000 13.406083
RightHandThumb1 -24.326973 -0.000000 -32.862282
LeftUpLeg -55.407947 48.642937 -1.727822
LeftLeg 16.119952 -0.000000 -0.000000
LeftFoot -10.634583 18.246368 -7.641105
LeftToeBase 5.808488 -0.000000 -0.000000
RightUpLeg -102.731933 -31.684659 6.298647
RightLeg 150.877146 -0.000000 -0.000000
RightFoot 12.042159 7.453769 20.887507
RightToeBase -4.484634 -0.000000 0.000000
1008
root 11.491844 39.055108 5.658568 194.866791 -19.949205 -136.903270
Spine -18.555031 8.500947 16.562967
Head -5.774936 7.745215 22.325121
LeftShoulder -7.418863 21.719563 21.118613
LeftArm 6.759220 18.881386 -80.480752
LeftForeArm 11.327059 -0.000000 34.440095
LeftHand -15.393605 0.000000 -9.577085
LeftHandThumb1 -26.253704 0.000000 33.147579
RightShoulder -40.479138 -47.689162 25.819078
RightArm 48.547085 -7.023972 61.846276
RightForeArm 49.506990 0.000000 34.581667
RightHand -2.362197 0.000000 13.410516
RightHandThumb1 -24.326973 -0.000000 -32.862282
LeftUpLeg -55.664036 48.786581 -1.904537
LeftLeg 16.180482 -0.000000 -0.000000
LeftFoot -10.640314 18.406722 -7.615046
LeftToeBase 5.707169 -0.000000 -0.000000
RightUpLeg -102.716399 -31.658399 6.251002
RightLeg 150.911610 -0.000000 -0.000000
RightFoot 12.161904 7.398035 20.916573
RightToeBase -4.601465 -0.000000 0.000000
